<?xml version="1.0" encoding="iso-8859-1"?>
<!-- Generator: Adobe Illustrator 16.0.0, SVG Export Plug-In . SVG Version: 6.00 Build 0)  -->
<!DOCTYPE svg PUBLIC "-//W3C//DTD SVG 1.1//EN" "http://www.w3.org/Graphics/SVG/1.1/DTD/svg11.dtd">
<svg version="1.1" id="Capa_1" xmlns="http://www.w3.org/2000/svg" xmlns:xlink="http://www.w3.org/1999/xlink" x="0px" y="0px"
	 width="951.009px" height="951.008px" viewBox="0 0 951.009 951.008" style="enable-background:new 0 0 951.009 951.008;"
	 xml:space="preserve">
<g>
	<g>
		<path d="M188.562,670.438c0.116-0.115,4.157-4.107,6.137-5.922c16.376-15,35.352-26.393,56.4-33.857
			c17.851-6.332,36.442-9.541,55.254-9.541c22.192,0.002,43.867,4.396,64.426,13.064c14.217,5.994,27.354,13.801,39.243,23.305
			c18.395-11.043,35.24-20.863,49.381-28.777c28.727-16.084,38.585-20.035,43.965-21.68c25.558-7.82,51.581-11.195,73.665-13.465
			c11.857-1.217,24.017-0.473,35.683-3.264c12.756-3.051,20.909-11.791,30.461-20.1c20.557-17.881,39.483-37.686,55.973-59.391
			c7.878-10.371,14.941-21.207,21.795-32.268c7.803-12.595,13.552-24.135,13.737-39.071c0.095-7.518,0.559-15.051,0.838-22.563
			c0.816-21.897,1.637-43.794,2.458-65.691c1.554-41.333,3.075-82.667,4.73-123.996c0.127-3.182,0.252-6.363,0.395-9.544
			c0.021-0.447,0.04-0.875,0.06-1.317c0.011-0.239,0.021-0.475,0.032-0.713c0.064-0.035,0.13-0.07,0.194-0.105
			c11.392-6.143,16.304-20.119,10.958-32.142c-2.012-4.526-5.208-8.154-9.057-10.694c-6.88-4.54-15.854-5.591-23.943-1.995
			L14.85,484.797c-12.616,5.609-18.297,20.385-12.688,33.002c4.142,9.314,13.28,14.85,22.857,14.85
			c3.394,0,6.842-0.693,10.143-2.162l2.332-1.037c27.106,51.609,63.959,92.041,109.803,120.389
			c13.046,8.068,26.68,15.068,40.862,21.018C188.294,670.717,188.427,670.577,188.562,670.438z"/>
		<path d="M924.372,23.444c-5.167,0-10.479,1.417-15.361,4.097c-9.945,5.46-29.013,17.036-47.454,28.23
			c-18.256,11.084-37.133,22.544-46.693,27.793c-8.755,4.807-17.993,10.419-26.243,18.87c-5.218,5.344-12.135,15.358-15.467,32.712
			c-2.233,11.633-13.905,316.542-13.941,317.679c-0.812,25.445,57.893,143.052,61.758,151.257c-0.002,0-0.004,0-0.006,0
			c-2.159-0.002-288.929,20.32-310.281,26.852c-11.765,3.6-101.463,56.244-103.591,57.541c-0.68-0.693-1.372-1.375-2.064-2.053
			c-0.122-0.121-0.241-0.244-0.364-0.363c-0.166-0.162-0.336-0.318-0.503-0.479c-26.096-25.086-61.246-39.459-97.805-39.461
			c-15.575,0-31.401,2.605-46.897,8.102c-16.637,5.9-31.469,14.639-44.161,25.465c-0.131,0.111-0.263,0.223-0.393,0.334
			c-0.168,0.145-0.339,0.285-0.506,0.43c-42.457,36.84-60.421,97.33-40.525,153.428c20.438,57.627,74.83,93.688,132.751,93.688
			c15.581,0,31.406-2.605,46.907-8.104c73.128-25.938,111.52-106.529,85.584-179.658c-0.804-2.266-1.661-4.5-2.569-6.699
			c20.038-12.762,81.565-47.715,98.913-52.486c13.312-3.66,273.514-22.715,298.732-25.549c13.373-1.504,26.077-1.918,35.845-12.309
			c8.225-8.75,11.793-21.055,8.049-32.652c-3.613-11.189-62.802-141.3-63.407-144.664c-0.86-5.265,12.38-311.274,12.867-320.64
			c0.334-6.436,10.731-11.909,10.731-11.909c4.44-2.567,93.027-55.431,100.22-59.379c5.919-3.25,10.09-8.935,11.744-16.008
			c1.843-7.883,0.323-16.346-4.066-22.637C941.028,27.503,933.286,23.444,924.372,23.444z M333.599,863.268
			c-8.93,3.166-18.056,4.67-27.031,4.67c-33.382,0-64.724-20.779-76.502-53.99c-14.947-42.143,7.179-88.586,49.321-103.533
			c8.927-3.166,18.047-4.668,27.019-4.668c17.328,0,34.104,5.6,47.885,15.631c-19.087,12.182-50.47,32.633-63.493,41.705
			c-9.926,6.914-13.873,18.279-10.3,29.66c3.737,11.902,14.521,20.217,26.226,20.217c5.333,0,10.649-1.738,15.373-5.029
			c12.21-8.504,43.964-29.285,62.834-41.588C395.486,806.625,373.549,849.098,333.599,863.268z"/>
	</g>
</g>
<g>
</g>
<g>
</g>
<g>
</g>
<g>
</g>
<g>
</g>
<g>
</g>
<g>
</g>
<g>
</g>
<g>
</g>
<g>
</g>
<g>
</g>
<g>
</g>
<g>
</g>
<g>
</g>
<g>
</g>
</svg>
